<svg width="18" height="24" viewBox="0 0 18 24" fill="none" xmlns="http://www.w3.org/2000/svg">
<path fill-rule="evenodd" clip-rule="evenodd" d="M7.20268 21.3691L9.2746 20.0314L11.3136 21.3385L14.8874 23.6667V14.6499C13.3527 15.814 11.3904 16.5186 9.25267 16.5186C7.12594 16.5186 5.16364 15.814 3.61792 14.6499V23.6667L7.20268 21.3691Z" fill="#733B0B"/>
<path fill-rule="evenodd" clip-rule="evenodd" d="M11.3142 21.3385V16.294C10.6455 16.4267 9.96581 16.5186 9.25325 16.5186C8.55164 16.5186 7.861 16.4267 7.20325 16.294V21.3691L9.27517 20.0314L11.3142 21.3385Z" fill="#EA6C00"/>
<path d="M9.25256 16.0182C13.9024 16.0182 17.6718 12.5071 17.6718 8.1758C17.6718 3.84453 13.9024 0.333344 9.25256 0.333344C4.60274 0.333344 0.833313 3.84453 0.833313 8.1758C0.833313 12.5071 4.60274 16.0182 9.25256 16.0182Z" fill="#EA6C00"/>
<path d="M9.25185 15.089C13.3507 15.089 16.6735 11.9939 16.6735 8.17581C16.6735 4.35775 13.3507 1.2626 9.25185 1.2626C5.15299 1.2626 1.8302 4.35775 1.8302 8.17581C1.8302 11.9939 5.15299 15.089 9.25185 15.089Z" fill="#332C2B"/>
<path fill-rule="evenodd" clip-rule="evenodd" d="M9.25284 13.4041L10.8972 10.4019L12.5306 7.37927H9.25284H5.97504L7.61942 10.4019L9.25284 13.4041Z" fill="#EA6C00"/>
<path fill-rule="evenodd" clip-rule="evenodd" d="M9.25284 4.27496L10.8972 5.82712L12.5306 7.37927H9.25284H5.97504L7.61942 5.82712L9.25284 4.27496Z" fill="#FEEEB7"/>
<path fill-rule="evenodd" clip-rule="evenodd" d="M5.9745 7.3793H3.86969L9.25231 13.4041L7.61889 10.4019L5.9745 7.3793Z" fill="#733B0B"/>
<path fill-rule="evenodd" clip-rule="evenodd" d="M12.5307 7.37927H14.6355L9.25287 13.4041L10.8973 10.4019L12.5307 7.37927Z" fill="#733B0B"/>
<path fill-rule="evenodd" clip-rule="evenodd" d="M12.5304 7.3793H14.6352L12.4098 4.50986L12.5304 7.3793Z" fill="#FDAD00"/>
<path fill-rule="evenodd" clip-rule="evenodd" d="M5.9745 7.3793H3.86969L6.10605 4.50986L5.9745 7.3793Z" fill="#FDAD00"/>
<path fill-rule="evenodd" clip-rule="evenodd" d="M9.25284 4.27496L6.10659 4.50983L5.97504 7.37927L7.61942 5.82712L9.25284 4.27496Z" fill="#FDD231"/>
<path fill-rule="evenodd" clip-rule="evenodd" d="M9.25287 4.27496L12.4101 4.50983L12.5307 7.37927L10.8973 5.82712L9.25287 4.27496Z" fill="#FDD231"/>
</svg>
